<?xml version="1.0" encoding="UTF-8"?>
<svg xmlns="http://www.w3.org/2000/svg" xmlns:xlink="http://www.w3.org/1999/xlink" width="30px" height="33px" viewBox="0 0 30 32" version="1.1">
<g id="surface1">
<path style=" stroke:none;fill-rule:evenodd;fill:rgb(0%,0%,0%);fill-opacity:1;" d="M 15 3.789062 C 18.296875 3.785156 21.460938 5.058594 23.804688 7.328125 C 26.144531 9.597656 27.472656 12.679688 27.5 15.902344 C 27.523438 19.125 26.246094 22.230469 23.941406 24.535156 C 23.210938 22.921875 22.039062 21.542969 20.550781 20.550781 C 18.914062 19.460938 16.980469 18.875 15 18.871094 C 13.019531 18.878906 11.089844 19.460938 9.453125 20.550781 C 7.964844 21.542969 6.789062 22.921875 6.058594 24.535156 C 3.753906 22.230469 2.472656 19.125 2.5 15.902344 C 2.527344 12.679688 3.855469 9.597656 6.195312 7.328125 C 8.539062 5.058594 11.703125 3.785156 15 3.789062 Z M 15 8.769531 C 13.570312 8.769531 12.21875 9.417969 11.347656 10.53125 C 10.476562 11.640625 10.183594 13.085938 10.554688 14.4375 C 10.925781 15.789062 11.921875 16.894531 13.242188 17.429688 C 14.5625 17.964844 16.066406 17.867188 17.304688 17.167969 C 18.542969 16.464844 19.378906 15.242188 19.566406 13.855469 C 19.753906 12.46875 19.269531 11.074219 18.257812 10.085938 C 17.394531 9.242188 16.222656 8.765625 15 8.769531 Z M 17.726562 10.589844 C 16.417969 9.3125 14.367188 9.117188 12.832031 10.125 C 11.292969 11.132812 10.699219 13.058594 11.410156 14.730469 C 12.125 16.398438 13.945312 17.34375 15.757812 16.984375 C 17.570312 16.628906 18.871094 15.066406 18.867188 13.257812 C 18.863281 12.253906 18.453125 11.296875 17.726562 10.589844 Z M 23.382812 25.050781 C 22.714844 23.464844 21.589844 22.101562 20.136719 21.136719 C 18.625 20.121094 16.835938 19.578125 15 19.578125 C 13.164062 19.578125 11.375 20.121094 9.863281 21.136719 C 8.410156 22.101562 7.285156 23.464844 6.617188 25.050781 C 8.914062 27.085938 11.902344 28.210938 15 28.210938 C 18.097656 28.210938 21.085938 27.085938 23.378906 25.050781 Z M 23.382812 25.050781 "/>
</g>
</svg>
