<?xml version="1.0" encoding="UTF-8"?>
<svg xmlns="http://www.w3.org/2000/svg" xmlns:xlink="http://www.w3.org/1999/xlink" width="30px" height="30px" viewBox="0 0 30 30" version="1.1">
<g id="surface1">
<path style=" stroke:none;fill-rule:evenodd;fill:rgb(0%,0%,0%);fill-opacity:1;" d="M 5 0 L 25 0 C 27.761719 0 30 2.238281 30 5 L 30 25 C 30 27.761719 27.761719 30 25 30 L 5 30 C 2.238281 30 0 27.761719 0 25 L 0 5 C 0 2.238281 2.238281 0 5 0 Z M 20.625 2.589844 C 20.003906 2.589844 19.5 3.09375 19.5 3.714844 C 19.5 4.335938 20.003906 4.839844 20.625 4.839844 C 21.246094 4.839844 21.75 4.335938 21.75 3.714844 C 21.75 3.09375 21.246094 2.589844 20.625 2.589844 Z M 24.292969 2.589844 C 23.671875 2.589844 23.167969 3.09375 23.167969 3.714844 C 23.167969 4.335938 23.671875 4.839844 24.292969 4.839844 C 24.914062 4.839844 25.417969 4.335938 25.417969 3.714844 C 25.417969 3.09375 24.914062 2.589844 24.292969 2.589844 Z M 2.398438 25.484375 C 2.398438 26.476562 3.203125 27.28125 4.195312 27.28125 L 25.738281 27.28125 C 26.730469 27.28125 27.535156 26.476562 27.535156 25.484375 L 27.535156 6.75 L 2.398438 6.75 Z M 7.648438 16.984375 C 7.648438 16.972656 7.652344 16.960938 7.652344 16.949219 C 7.65625 16.921875 7.65625 16.90625 7.65625 16.90625 L 7.667969 16.90625 C 7.789062 16.546875 8.621094 16.226562 9.902344 15.992188 L 7.902344 12.78125 C 7.644531 12.359375 7.742188 11.808594 8.136719 11.507812 L 8.40625 11.296875 C 8.785156 11.011719 9.316406 11.039062 9.65625 11.367188 L 14.09375 15.613281 C 14.390625 15.605469 14.691406 15.605469 15 15.605469 C 18.898438 15.605469 22.085938 16.175781 22.332031 16.902344 L 22.34375 16.902344 C 22.34375 16.902344 22.34375 16.917969 22.34375 16.945312 C 22.347656 16.960938 22.351562 16.972656 22.351562 16.988281 C 22.351562 16.996094 22.347656 17 22.347656 17.007812 C 22.347656 17.039062 22.351562 17.0625 22.351562 17.078125 C 22.351562 21.144531 19.058594 23.460938 15 23.460938 C 10.941406 23.460938 7.652344 21.128906 7.652344 17.066406 C 7.652344 17.050781 7.652344 17.027344 7.652344 17.003906 C 7.652344 17 7.648438 16.992188 7.648438 16.984375 Z M 15 19.046875 C 18.347656 19.046875 21.398438 18.242188 21.398438 17.660156 C 21.398438 17.078125 18.347656 16.609375 15 16.609375 C 14.925781 16.609375 14.855469 16.609375 14.785156 16.609375 L 15.976562 17.75 C 16.035156 17.808594 16.035156 17.902344 15.980469 17.960938 C 15.949219 17.992188 15.910156 18.007812 15.867188 18.007812 L 10.980469 17.929688 C 10.929688 17.929688 10.882812 17.902344 10.855469 17.859375 L 10.316406 16.992188 C 9.453125 17.175781 8.9375 17.40625 8.9375 17.660156 C 8.9375 18.242188 11.652344 19.046875 15 19.046875 Z M 15 19.046875 "/>
</g>
</svg>
