<?xml version="1.0" encoding="UTF-8"?>
<svg xmlns="http://www.w3.org/2000/svg" xmlns:xlink="http://www.w3.org/1999/xlink" width="30px" height="30px" viewBox="0 0 30 30" version="1.1">
<g id="surface1">
<path style=" stroke:none;fill-rule:evenodd;fill:rgb(0%,0%,0%);fill-opacity:1;" d="M 27.449219 26.753906 L 27.449219 1.519531 C 27.449219 0.707031 26.457031 0.492188 26.457031 0.492188 L 5.382812 0.492188 C 3.542969 0.492188 2.832031 1.695312 2.550781 2.613281 L 2.515625 29.363281 C 9.316406 29.363281 17.25 29.363281 24.050781 29.363281 L 24.050781 27.847656 C 24.828125 27.847656 25.609375 27.847656 26.386719 27.847656 C 27.519531 27.847656 27.449219 26.753906 27.449219 26.753906 Z M 19.621094 7.835938 L 17.425781 11.648438 L 17 11.398438 L 19.195312 7.589844 C 19.339844 7.339844 18.949219 7.09375 18.808594 7.375 L 16.613281 11.152344 L 16.1875 10.90625 L 18.382812 7.128906 C 18.523438 6.847656 18.132812 6.636719 17.992188 6.882812 L 15.796875 10.695312 L 15.371094 10.445312 L 17.566406 6.636719 C 17.710938 6.386719 17.320312 6.175781 17.179688 6.421875 L 14.308594 11.398438 C 13.957031 11.964844 14.027344 12.707031 14.449219 13.199219 L 13.460938 14.824219 L 12.398438 13.128906 C 13.496094 12.140625 13.28125 10.765625 12.609375 9.601562 C 11.546875 7.800781 9.386719 6.246094 8.144531 6.988281 C 6.90625 7.695312 7.15625 10.339844 8.183594 12.140625 C 8.855469 13.304688 9.953125 14.1875 11.371094 13.730469 L 12.679688 16.128906 L 7.507812 24.601562 C 6.835938 25.660156 8.464844 26.578125 9.066406 25.519531 L 13.460938 17.542969 L 17.816406 25.445312 C 18.382812 26.507812 20.011719 25.589844 19.375 24.53125 L 14.238281 16.128906 L 15.476562 13.835938 C 16.152344 13.90625 16.824219 13.589844 17.144531 13.023438 L 20.011719 8.046875 C 20.152344 7.800781 19.800781 7.589844 19.621094 7.835938 Z M 5.347656 2.613281 L 24.261719 2.613281 C 25.394531 2.613281 25.359375 3.636719 25.359375 3.636719 L 25.359375 26.683594 L 24.050781 26.683594 L 24.050781 3.53125 C 18.171875 3.53125 11.441406 3.53125 5.347656 3.53125 Z M 5.347656 2.613281 "/>
</g>
</svg>
